<?xml version="1.0" encoding="UTF-8"?>
<svg version="1.1" xmlns="http://www.w3.org/2000/svg" width="779" height="779">
<path d="M0 0 C1.17603631 -0.00260775 2.35207262 -0.00521549 3.56374639 -0.00790226 C4.86712393 -0.00567154 6.17050146 -0.00344082 7.51337528 -0.0011425 C8.90302145 -0.00229372 10.29266732 -0.00388125 11.68231255 -0.00586975 C15.51434058 -0.010063 19.34634387 -0.00797238 23.17837203 -0.00488353 C27.30590558 -0.00262962 31.43343475 -0.00610901 35.56096745 -0.00886345 C43.65237566 -0.01332035 51.74377462 -0.012345 59.8351832 -0.00945081 C66.40929144 -0.00719631 72.98339709 -0.00688446 79.55750561 -0.00797462 C80.4916652 -0.00812786 81.42582479 -0.00828109 82.38829224 -0.00843897 C84.28578098 -0.00875868 86.18326972 -0.00908289 88.08075846 -0.00941156 C105.892337 -0.01226615 123.7039104 -0.00897973 141.5154881 -0.00361119 C156.81060854 0.0008561 172.1057214 0.00008149 187.40084171 -0.00452995 C205.14529564 -0.00987733 222.88974506 -0.01199069 240.63419968 -0.00891769 C242.52517958 -0.00859913 244.41615949 -0.00828476 246.3071394 -0.00797462 C247.70287897 -0.00774321 247.70287897 -0.00774321 249.1268153 -0.00750712 C255.69525954 -0.00664241 262.26370094 -0.00810389 268.83214474 -0.01045418 C276.83375757 -0.01325422 284.83536059 -0.01250961 292.83697229 -0.00717343 C296.9223259 -0.00453908 301.00766312 -0.00352688 305.09301662 -0.00682259 C308.82910914 -0.00979103 312.56517002 -0.00818351 316.30125964 -0.00284503 C318.30116345 -0.00118963 320.30106942 -0.00447358 322.30097097 -0.00790226 C324.06893706 -0.00399064 324.06893706 -0.00399064 325.87261963 0 C326.89412233 0.00016235 327.91562504 0.0003247 328.96808237 0.00049198 C331.49923038 0.12584114 331.49923038 0.12584114 334.49923038 1.12584114 C336.13057804 3.44127083 336.13057804 3.44127083 337.91329288 6.54771614 C338.23989902 7.11069405 338.56650517 7.67367195 338.90300846 8.25370979 C339.98508233 10.12307857 341.0544483 11.99941552 342.12423038 13.87584114 C342.88434457 15.19344897 343.64542772 16.51049824 344.40743351 17.82701302 C345.99161456 20.56574145 347.57157421 23.30684043 349.14864445 26.04966927 C352.38279625 31.66731751 355.66712011 37.25533974 358.95192814 42.84346199 C360.71485778 45.84375064 362.47406955 48.84621761 364.23360538 51.84849739 C364.58347507 52.44531822 364.93334476 53.04213905 365.29381657 53.65704536 C367.45980864 57.35189437 369.62488011 61.04728154 371.78939152 64.74299812 C378.50810365 76.21455628 385.22851469 87.68486077 391.99923038 99.12584114 C396.93617376 107.46816045 401.84855776 115.82468333 406.74923038 124.18834114 C407.28380863 125.10064995 407.28380863 125.10064995 407.82918644 126.03138924 C410.75455504 131.02418207 413.67890949 136.01756874 416.60323429 141.01097298 C419.15143523 145.36203453 421.70002028 149.71287075 424.24923038 154.06334114 C424.60593815 154.67211098 424.96264591 155.28088081 425.330163 155.90809822 C429.87104811 163.65652197 434.42527054 171.39688202 438.99923038 179.12584114 C443.93617398 187.46816082 448.84849257 195.82472128 453.74923038 204.18834114 C454.10661289 204.79820869 454.4639954 205.40807625 454.83220768 206.03642464 C458.46652901 212.23872482 462.09911359 218.4420406 465.73037052 224.64613533 C467.5070073 227.68132031 469.28418765 230.71618665 471.06173038 233.75084114 C471.4102808 234.34590462 471.75883121 234.94096809 472.11794376 235.5540638 C478.06525604 245.70476813 484.05101192 255.8323475 490.0600214 265.94664192 C491.27602061 267.99418532 492.48673861 270.0448763 493.6916132 272.09898567 C494.94273362 274.19398715 496.2313302 276.26689142 497.54903507 278.32066536 C498.2003339 279.3585218 498.85163273 280.39637825 499.52266788 281.46568489 C500.4147797 282.84614998 500.4147797 282.84614998 501.32491398 284.25450325 C502.87386407 288.04186334 502.49670006 290.18337018 501.49923038 294.12584114 C500.04732609 297.20176888 500.04732609 297.20176888 498.17501163 300.30943489 C497.83737293 300.87759422 497.49973423 301.44575356 497.15186405 302.03112984 C496.04902209 303.88174104 494.93043906 305.72228667 493.81173038 307.56334114 C493.03249962 308.8653366 492.25452086 310.16808212 491.47774601 311.47154427 C489.90322299 314.11162766 488.32359669 316.74854366 486.73995304 319.38316536 C483.60885691 324.60110491 480.55388547 329.86290444 477.49923038 335.12584114 C472.4090342 343.86320468 467.30166264 352.59044482 462.18673038 361.31334114 C461.83178501 361.91866676 461.47683964 362.52399239 461.11113834 363.14766121 C458.20975265 368.09545075 455.3076888 373.04284243 452.40560246 377.99022102 C449.87399895 382.30607765 447.34265641 386.62208718 444.81173038 390.93834114 C444.45654331 391.5440696 444.10135624 392.14979805 443.73540592 392.77388191 C438.97961822 400.88515032 434.23400305 409.00228321 429.49923038 417.12584114 C424.40729329 425.86219426 419.30166539 434.59044013 414.18673038 443.31334114 C413.83178501 443.91866676 413.47683964 444.52399239 413.11113834 445.14766121 C410.20975265 450.09545075 407.3076888 455.04284243 404.40560246 459.99022102 C401.87399895 464.30607765 399.34265641 468.62208718 396.81173038 472.93834114 C396.45654331 473.5440696 396.10135624 474.14979805 395.73540592 474.77388191 C390.97961822 482.88515032 386.23400305 491.00228321 381.49923038 499.12584114 C374.62467807 510.92066803 367.72117086 522.69841896 360.8135767 534.47390938 C358.1573047 539.00254359 355.50364525 543.53270306 352.85079288 548.06334114 C351.70627052 550.01751665 350.56169925 551.9716635 349.41710758 553.92579842 C348.69278539 555.1626514 347.96863754 556.39960651 347.24468327 557.63667488 C346.23236609 559.36642343 345.21932316 561.09574718 344.20626163 562.82505989 C343.63367619 563.8030555 343.06109074 564.7810511 342.47115421 565.78868294 C341.82041935 566.88994514 341.16968449 567.99120735 340.49923038 569.12584114 C340.16046548 569.93943623 339.82170058 570.75303133 339.47267008 571.59128082 C338.08278007 574.55609729 336.76591434 576.75115463 334.49923038 579.12584114 C329.9978552 580.66312061 325.6112076 580.53610311 320.88826847 580.48988533 C319.48231584 580.51144213 318.07642374 580.53730375 316.6706214 580.56709087 C312.81135994 580.63599259 308.95414262 580.64243597 305.09436083 580.63831449 C300.93015446 580.64450462 296.76674843 580.70782098 292.60295963 580.76320076 C283.49934777 580.87310457 274.39634686 580.90860649 265.29215908 580.93013811 C259.60430637 580.94416121 253.91662193 580.97482722 248.2288599 581.00913811 C232.47196028 581.10215341 216.71522084 581.17997517 200.95802402 581.19064713 C199.44573835 581.19167656 199.44573835 581.19167656 197.90290144 581.19272678 C195.85915439 581.19404137 193.81540734 581.19533951 191.77166027 581.19662131 C190.75717833 581.19727265 189.74269639 581.19792398 188.69747257 581.19859505 C187.68174768 581.19923548 186.66602278 581.19987592 185.61951834 581.20053576 C169.17068138 581.21388217 152.7249107 581.34102898 136.27710694 581.51886334 C119.37847031 581.70010815 102.48134887 581.79118747 85.58171797 581.79066837 C76.09733943 581.79234081 66.61653712 581.83155208 57.13306522 581.96901512 C49.05429978 582.0855466 40.98046204 582.11860964 32.90110189 582.04500617 C28.78040581 582.00987181 24.6693737 582.01262338 20.54974842 582.12135506 C-3.44958271 582.7176739 -3.44958271 582.7176739 -10.16860485 576.7605052 C-14.73353483 571.02568745 -17.6912133 564.7652378 -20.34399033 557.96921706 C-21.90423248 554.13412509 -23.93487846 550.70892065 -26.12967587 547.21177864 C-26.78451962 546.09416145 -27.43936337 544.97654427 -28.11405087 543.82505989 C-28.75729305 542.7280677 -29.40053524 541.63107552 -30.06326962 540.50084114 C-30.41550594 539.89997688 -30.76774227 539.29911263 -31.13065243 538.68004036 C-36.25398432 529.94117817 -41.39756571 521.21448117 -46.55667782 512.49669075 C-50.97297841 505.02959801 -55.36493879 497.54835209 -59.75076962 490.06334114 C-60.10715511 489.45513527 -60.46354061 488.8469294 -60.83072567 488.22029305 C-63.75609427 483.22750021 -66.68044872 478.23411354 -69.60477352 473.2407093 C-72.15297446 468.88964775 -74.70155951 464.53881153 -77.25076962 460.18834114 C-77.60747738 459.5795713 -77.96418514 458.97080147 -78.33170223 458.34358406 C-82.87258734 450.59516031 -87.42680977 442.85480026 -92.00076962 435.12584114 C-96.93771321 426.78352146 -101.8500318 418.426961 -106.75076962 410.06334114 C-107.10815212 409.45347359 -107.46553463 408.84360603 -107.83374691 408.21525764 C-111.46810396 402.01289649 -115.10072485 395.80952009 -118.73201656 389.60536385 C-120.5086181 386.57024011 -122.2857725 383.53544046 -124.06326962 380.50084114 C-124.41414639 379.90178963 -124.76502316 379.30273811 -125.12653255 378.68553352 C-130.94577935 368.7530647 -136.80894344 358.84731744 -142.68582821 348.94883919 C-147.63016986 340.61375939 -152.53999824 332.25914618 -157.39041805 323.8690052 C-160.29057186 318.86208841 -163.24291731 313.899614 -166.29764462 308.98521614 C-166.90841854 307.99046272 -167.51919247 306.9957093 -168.14847469 305.97081184 C-169.30962885 304.0845501 -170.48574565 302.20738681 -171.67923641 300.34141731 C-173.96524336 296.6035592 -175.44737453 294.04587947 -175.70389462 289.62584114 C-174.02010285 284.72753783 -171.53815652 280.57673135 -168.81326962 276.18834114 C-167.61576135 274.21231996 -166.41917744 272.23573835 -165.22342587 270.25865364 C-164.604837 269.24319466 -163.98624813 268.22773567 -163.34891415 267.1815052 C-160.42283495 262.34361786 -157.58825776 257.45353246 -154.75076962 252.56334114 C-153.5754531 250.5448413 -152.39966071 248.52661848 -151.22342587 246.50865364 C-150.31874569 244.95646126 -150.31874569 244.95646126 -149.39578915 243.37291145 C-146.00136714 237.55665112 -142.59493967 231.74743249 -139.18826962 225.93834114 C-138.83368679 225.33364998 -138.47910397 224.72895882 -138.11377621 224.10594368 C-135.21202357 219.1575137 -132.30960148 214.20947648 -129.40714169 209.26146126 C-126.87553818 204.94560463 -124.34419564 200.6295951 -121.81326962 196.31334114 C-121.28048901 195.40474846 -121.28048901 195.40474846 -120.73694515 194.47780037 C-115.98115745 186.36653196 -111.23554228 178.24939907 -106.50076962 170.12584114 C-101.40883252 161.38948802 -96.30320462 152.66124215 -91.18826962 143.93834114 C-90.83332424 143.33301552 -90.47837887 142.7276899 -90.11267757 142.10402107 C-87.21129188 137.15623154 -84.30922803 132.20883985 -81.40714169 127.26146126 C-78.87553818 122.94560463 -76.34419564 118.6295951 -73.81326962 114.31334114 C-73.45808254 113.70761269 -73.10289547 113.10188423 -72.73694515 112.47780037 C-67.98115745 104.36653196 -63.23554228 96.24939907 -58.50076962 88.12584114 C-51.62008573 76.32049418 -44.71042922 64.53222803 -37.79698849 52.74604988 C-34.8209499 47.67231843 -31.84641171 42.59770883 -28.87274837 37.52258492 C-27.0553589 34.4210202 -25.23724896 31.31988339 -23.41727352 28.21983528 C-20.35852624 23.00883279 -17.30464941 17.79540591 -14.28201962 12.56334114 C-13.81400936 11.75671028 -13.34599911 10.95007942 -12.86380672 10.1190052 C-12.02692885 8.67555976 -11.19407519 7.22976971 -10.36624813 5.78111458 C-7.31986299 0.54064369 -5.94576686 0.00094514 0 0 Z M-5.50076962 10.12584114 C-6.4930265 11.61712781 -7.43256907 13.14347119 -8.35233212 14.68052864 C-8.94836239 15.67407356 -9.54439266 16.66761848 -10.15848446 17.69127083 C-11.13229061 19.32950813 -11.13229061 19.32950813 -12.12576962 21.00084114 C-12.7994659 22.12909309 -13.47316219 23.25734505 -14.16727352 24.41978645 C-19.4413521 33.26931541 -24.60465086 42.18143297 -29.73612118 51.11436653 C-34.40864295 59.24660694 -39.12769156 67.35009187 -43.87576962 75.43834114 C-44.40525707 76.34046837 -44.40525707 76.34046837 -44.94544125 77.26082039 C-46.73983364 80.31773086 -48.53489576 83.37424729 -50.33035946 86.43052864 C-53.95313886 92.59776029 -57.57075661 98.76801941 -61.18826962 104.93834114 C-61.54354733 105.54425087 -61.89882504 106.1501606 -62.26486874 106.77443123 C-67.0205706 114.88551335 -71.76609971 123.00245952 -76.50076962 131.12584114 C-81.59270671 139.86219426 -86.69833461 148.59044013 -91.81326962 157.31334114 C-92.16821499 157.91866676 -92.52316036 158.52399239 -92.88886166 159.14766121 C-95.79024735 164.09545075 -98.6923112 169.04284243 -101.59439754 173.99022102 C-104.12600105 178.30607765 -106.65734359 182.62208718 -109.18826962 186.93834114 C-109.72105022 187.84693382 -109.72105022 187.84693382 -110.26459408 188.77388191 C-115.02038178 196.88515032 -119.76599695 205.00228321 -124.50076962 213.12584114 C-129.23641215 221.25089153 -133.98296801 229.36947303 -138.73969173 237.4821949 C-139.80832972 239.30491541 -140.87661825 241.12784039 -141.94486141 242.95079231 C-145.30216565 248.67879038 -148.66323778 254.40450788 -152.0350256 260.12399483 C-153.58894162 262.76042944 -155.14093132 265.39799552 -156.6927557 268.0356617 C-157.42960413 269.28686113 -158.16739092 270.5375085 -158.90619564 271.78755379 C-160.56741682 274.59849518 -162.21424872 277.41532652 -163.83158016 280.2518177 C-164.84456008 281.99597444 -165.9030728 283.71604756 -167.03909969 285.38267708 C-168.52617247 287.53649542 -168.52617247 287.53649542 -169.50076962 291.12584114 C-168.49915777 294.7433246 -166.60555104 297.62808305 -164.56326962 300.75084114 C-164.00276913 301.66543098 -163.44226864 302.58002083 -162.86478329 303.52232552 C-161.68340678 305.44882234 -160.48951779 307.36769563 -159.28397274 309.27916145 C-157.07431489 312.80662729 -154.96556435 316.38723559 -152.86283016 319.97911263 C-151.26403525 322.70993595 -149.65132378 325.43215367 -148.03592587 328.15318489 C-144.08547898 334.81865397 -140.16708342 341.502791 -136.25076962 348.18834114 C-135.52795743 349.42190634 -134.80513839 350.65546752 -134.08231258 351.88902473 C-130.81004311 357.47400538 -127.53927404 363.05986325 -124.26952267 368.64631844 C-122.49292113 371.68144217 -120.71576673 374.71624182 -118.93826962 377.75084114 C-118.58739285 378.34989265 -118.23651608 378.94894417 -117.87500668 379.56614876 C-112.71510359 388.37322953 -107.5238594 397.16115119 -102.31326962 405.93834114 C-96.20114999 416.23478603 -90.14691606 426.56342132 -84.12186337 436.91099739 C-80.13370726 443.75962408 -76.13250482 450.60057348 -72.12576962 457.43834114 C-71.76930355 458.04670815 -71.41283749 458.65507515 -71.04556942 459.28187752 C-65.82821599 468.18334237 -60.58011934 477.0660742 -55.31326962 485.93834114 C-50.36495074 494.27428574 -45.44220112 502.62408461 -40.56326962 511.00084114 C-40.00317196 511.9624012 -39.4430743 512.92396126 -38.86600399 513.9146595 C-37.70191299 515.9134222 -36.53785119 517.9122019 -35.37381649 519.91099739 C-25.56753388 536.74221863 -15.76398509 553.5672624 -5.50076962 570.12584114 C-2.04172922 566.08372788 0.509472 561.8237244 3.06173038 557.18834114 C3.64084171 556.15290169 3.64084171 556.15290169 4.23165226 555.09654427 C5.33525264 553.11307168 6.43183635 551.12906504 7.49923038 549.12584114 C8.0925214 548.1687928 8.68581242 547.21174446 9.29708195 546.22569466 C10.84096421 543.21003799 10.84096421 543.21003799 9.62496281 540.41050911 C9.04077579 539.48899055 8.45658878 538.567472 7.85469913 537.61802864 C7.20549503 536.56333382 6.55629093 535.50863899 5.88741398 534.42198372 C5.15385945 533.28159857 4.42029806 532.14121783 3.68673038 531.00084114 C2.94250032 529.80428945 2.20117182 528.60592866 1.46260929 527.40587044 C0.31095419 525.53475596 -0.84211639 523.66474761 -2.0036993 521.79977608 C-5.70456584 515.85145668 -9.18837262 509.79048709 -12.63443661 503.69200325 C-14.29271196 500.75852416 -15.9612298 497.83088769 -17.62967587 494.90318489 C-18.27694637 493.7673597 -18.92421688 492.6315345 -19.59110165 491.46129036 C-23.1155593 485.3054299 -26.70018832 479.18490581 -30.2825079 473.06260872 C-34.5498321 465.76629496 -38.78234328 458.45052374 -43.00076962 451.12584114 C-50.12152847 438.7655559 -57.30260385 426.44116709 -64.50076962 414.12584114 C-72.33734945 400.71825396 -80.14355569 387.29424835 -87.89505672 373.83726692 C-92.64328097 365.59898421 -97.42743655 357.3822405 -102.22684383 349.1736927 C-105.26421585 343.974341 -108.28763199 338.76746787 -111.28983212 333.54771614 C-112.24091854 331.89425179 -112.24091854 331.89425179 -113.21121883 330.20738411 C-114.47736442 328.00414224 -115.74203783 325.80005363 -117.00516415 323.59507942 C-119.95867978 318.45694181 -122.9509124 313.35530403 -126.07889462 308.32115364 C-126.63625301 307.41913216 -127.19361141 306.51711067 -127.76785946 305.5877552 C-128.80257784 303.92303064 -129.84891359 302.26544194 -130.90946102 300.61705208 C-133.76766807 296.01232956 -136.34658671 291.68813157 -135.50076962 286.12584114 C-133.88622273 282.21934468 -131.71100587 278.7204142 -129.50076962 275.12584114 C-128.29659172 273.01090425 -127.09888871 270.89227025 -125.90701962 268.77037239 C-124.60636672 266.49219366 -123.30443739 264.21479135 -122.00076962 261.93834114 C-121.65450527 261.33290474 -121.30824093 260.72746834 -120.95148373 260.10368538 C-115.58954291 250.72973572 -110.17496447 241.38754982 -104.72147274 232.06651497 C-100.45308415 224.76904484 -96.21996189 217.45185368 -92.00076962 210.12584114 C-84.3097086 196.77561964 -76.5459395 183.46850899 -68.77127743 170.16685677 C-61.51223819 157.74501524 -54.2877279 145.30425693 -47.10648251 132.83726692 C-42.35662429 124.59614923 -37.5698192 116.37717204 -32.77030087 108.16490364 C-27.85562761 99.74921595 -22.98556586 91.3082261 -18.12161922 82.86314583 C-14.39026771 76.38879662 -10.64176958 69.92488735 -6.87210751 63.47276497 C-5.68320948 61.43724445 -4.49614199 59.40065345 -3.31107235 57.36290169 C-0.84279893 53.11967401 1.63425648 48.88545926 4.18673038 44.69224739 C4.76789616 43.72206673 4.76789616 43.72206673 5.36080265 42.73228645 C6.34381454 41.09326413 7.34073523 39.46260427 8.33907413 37.83287239 C9.73374145 34.57864866 9.4592374 33.47980545 8.49923038 30.12584114 C7.22574394 27.67031274 7.22574394 27.67031274 5.59298038 25.26255989 C4.72479679 23.93321419 4.72479679 23.93321419 3.83907413 22.57701302 C3.2319257 21.6650013 2.62477726 20.75298958 1.99923038 19.81334114 C1.08850773 18.41631966 1.08850773 18.41631966 0.15938663 16.99107552 C-2.11162523 13.51743838 -2.11162523 13.51743838 -4.50076962 10.12584114 C-4.83076962 10.12584114 -5.16076962 10.12584114 -5.50076962 10.12584114 Z M331.49923038 10.12584114 C330.54136591 11.3285059 329.62813204 12.56675592 328.73360538 13.81724739 C328.1728632 14.59777473 327.61212101 15.37830208 327.03438663 16.18248177 C326.15073429 17.42288216 326.15073429 17.42288216 325.24923038 18.68834114 C324.38878117 19.88813606 324.38878117 19.88813606 323.51094913 21.11216927 C322.37504805 22.69699708 321.24539008 24.28631972 320.12227726 25.88023567 C319.08429976 27.31635436 318.00997183 28.72730815 316.89180851 30.10191536 C315.25945466 32.06517033 315.25945466 32.06517033 313.49923038 35.12584114 C313.78803473 37.71547082 313.78803473 37.71547082 315.49923038 40.12584114 C316.1330752 41.3179251 316.76289564 42.51215299 317.38985538 43.70787239 C318.17241066 45.12019834 318.95916815 46.53020087 319.74923038 47.93834114 C320.18396671 48.71677376 320.61870304 49.49520638 321.0666132 50.29722786 C326.48411835 59.94869262 332.09096635 69.49062341 337.68917179 79.03795052 C340.61083213 84.02219114 343.52457551 89.01104217 346.43673038 94.00084114 C347.2986298 95.47738167 347.2986298 95.47738167 348.17794132 96.9837513 C353.11172093 105.44420864 358.00501582 113.92773956 362.89351749 122.41441536 C367.07250632 129.665061 371.27654378 136.900567 375.49923038 144.12584114 C380.36025999 152.44335906 385.19064142 160.77789767 389.99923038 169.12584114 C397.12009447 181.48606632 404.30106417 193.81051441 411.49923038 206.12584114 C419.32687156 219.51813519 427.12383234 232.9270225 434.86715031 246.36827278 C439.30687835 254.07057664 443.76939647 261.759296 448.24923038 269.43834114 C448.83382023 270.44058723 449.41841007 271.44283333 450.02071476 272.47545052 C453.02440554 277.63867856 453.02440554 277.63867856 456.13863468 282.73521614 C458.15123078 286.27143379 458.11709146 288.06734194 457.49923038 292.12584114 C455.617178 296.24854369 453.28977471 300.06976208 450.93673038 303.93834114 C450.25226279 305.08891705 449.56943006 306.24046694 448.8881464 307.39293098 C447.47178795 309.78604352 446.04849908 312.17482199 444.62032413 314.56089973 C441.32313884 320.08402263 438.13727582 325.6713866 434.93673038 331.25084114 C427.26638024 344.55921791 419.52088339 357.82340827 411.7697382 371.08482552 C404.51069896 383.50666705 397.28618867 395.94742535 390.10494328 408.41441536 C385.35508506 416.65553305 380.56827997 424.87451024 375.76876163 433.08677864 C371.48700893 440.41867879 367.23718347 447.76854921 362.99923038 455.12584114 C355.3080557 468.47599779 347.54440078 481.78317242 339.7697382 495.08482552 C330.62479729 510.73386709 321.54241495 526.41784866 312.49923038 542.12584114 C316.523344 548.31003754 320.75862941 554.27257505 325.24923038 560.12584114 C325.82544132 560.88767708 326.40165226 561.64951302 326.99532413 562.43443489 C327.82483585 563.51918098 327.82483585 563.51918098 328.67110538 564.62584114 C329.16707218 565.27552864 329.66303898 565.92521614 330.17403507 566.59459114 C331.44123194 568.25670265 331.44123194 568.25670265 333.49923038 569.12584114 C333.86983585 568.479618 334.24044132 567.83339485 334.62227726 567.16758919 C341.83345789 554.60429147 349.09231185 542.074934 356.49923038 529.62584114 C362.43632944 519.64626232 368.27690748 509.61573108 374.06343937 499.54820442 C378.54175758 491.76419349 383.08507675 484.0213095 387.66500187 476.29673958 C391.55395598 469.73483254 395.41018839 463.15456562 399.24923038 456.56334114 C404.42354241 447.68057912 409.61145012 438.80591641 414.81173038 429.93834114 C415.16631321 429.33364998 415.52089603 428.72895882 415.88622379 428.10594368 C418.78797643 423.1575137 421.69039852 418.20947648 424.59285831 413.26146126 C427.12446182 408.94560463 429.65580436 404.6295951 432.18673038 400.31334114 C432.71951099 399.40474846 432.71951099 399.40474846 433.26305485 398.47780037 C438.01884255 390.36653196 442.76445772 382.24939907 447.49923038 374.12584114 C452.59116775 365.38948755 457.69692774 356.66132006 462.81173038 347.93834114 C463.16468174 347.33633888 463.51763309 346.73433662 463.88127995 346.11409187 C467.56235968 339.83572604 471.24494308 333.55824607 474.93033695 327.28241158 C476.44448091 324.703728 477.95801815 322.12468858 479.47148991 319.54561043 C480.18165436 318.3358162 480.89210931 317.12619244 481.6028986 315.91676521 C483.24961513 313.11481156 484.88638951 310.30933324 486.49581242 307.48570442 C487.9272441 305.08509964 489.37063685 302.85805551 490.9831171 300.59019661 C493.33619215 297.16319775 495.17694316 294.0918464 496.49923038 290.12584114 C495.60296883 285.37055242 493.25941535 282.03659712 490.49923038 278.12584114 C489.37470141 276.22359143 488.26132634 274.31470242 487.15938663 272.39927864 C485.96394524 270.43083384 484.76457824 268.46476886 483.56173038 266.50084114 C478.22791765 257.70462423 472.99429479 248.8607036 467.87423038 239.93834114 C462.82476363 231.14524807 457.72495471 222.38599573 452.5534296 213.66417122 C448.00994915 205.99954721 443.50125173 198.31485056 438.99923038 190.62584114 C434.01579511 182.1160001 429.02247465 173.61227163 423.99923038 165.12584114 C419.06220531 156.78357044 414.14990281 148.42699861 409.24923038 140.06334114 C408.89284489 139.45513527 408.53645939 138.8469294 408.16927433 138.22029305 C405.24390573 133.22750021 402.31955128 128.23411354 399.39522648 123.2407093 C396.84702554 118.88964775 394.29844049 114.53881153 391.74923038 110.18834114 C391.39252262 109.5795713 391.03581486 108.97080147 390.66829777 108.34358406 C386.12741266 100.59516031 381.57319023 92.85480026 376.99923038 85.12584114 C372.06228582 76.78351982 367.15025219 68.42679568 362.24923038 60.06334114 C361.89583591 59.46045265 361.54244144 58.85756416 361.17833805 58.23640633 C357.43445561 51.84929451 353.69356603 45.46045619 349.96044254 39.06704903 C348.40998675 36.41219374 346.85818206 33.75812818 345.30623722 31.10414314 C344.56816892 29.84109348 343.83076717 28.57765405 343.09407902 27.3137989 C342.06802209 25.55356024 341.03971208 23.79465552 340.01094913 22.03599739 C339.42789005 21.03705452 338.84483097 20.03811165 338.24410343 19.00889778 C336.40853165 15.97597948 334.53343427 13.0293445 332.49923038 10.12584114 C332.16923038 10.12584114 331.83923038 10.12584114 331.49923038 10.12584114 Z M17.08629704 56.35186958 C16.15973248 58.58428003 15.29493383 60.84351025 14.49923038 63.12584114 C13.3484653 65.18607296 12.16321948 67.22782554 10.92891788 69.23912239 C9.74227043 71.30452326 8.55742434 73.37095995 7.37423038 75.43834114 C6.05962344 77.7263895 4.74460625 80.01419628 3.42891788 82.30162239 C2.77246281 83.44324837 2.11600773 84.58487434 1.43966007 85.76109505 C-1.52062909 90.89429902 -4.50960612 96.01058585 -7.50076962 101.12584114 C-12.36201792 109.44322968 -17.19225242 117.7778587 -22.00076962 126.12584114 C-27.37991041 135.46447321 -32.79336408 144.78224432 -38.23123837 154.08677864 C-42.51299107 161.41867879 -46.76281653 168.76854921 -51.00076962 176.12584114 C-58.6919443 189.47599779 -66.45559922 202.78317242 -74.2302618 216.08482552 C-81.47955614 228.48999135 -88.71302792 240.9037141 -95.85990047 253.36827278 C-99.04972839 258.92251824 -102.28162155 264.44475232 -105.59451962 269.92662239 C-106.2500079 271.02039192 -106.90549618 272.11416145 -107.58084774 273.24107552 C-108.83311426 275.32648783 -110.09693789 277.4050165 -111.37381649 279.47545052 C-111.93133602 280.40808723 -112.48885555 281.34072395 -113.06326962 282.30162239 C-113.55955868 283.11542366 -114.05584774 283.92922493 -114.56717587 284.76768684 C-115.74938985 287.75382829 -115.49811228 289.09375572 -114.50076962 292.12584114 C-113.23878942 294.76502298 -113.23878942 294.76502298 -111.61405087 297.45787239 C-111.01270321 298.49105598 -110.41135555 299.52423958 -109.79178524 300.58873177 C-109.13887508 301.69410286 -108.48596493 302.79947395 -107.81326962 303.93834114 C-107.13096207 305.10526915 -106.44933167 306.27259334 -105.76834774 307.44029427 C-104.3674283 309.83988163 -102.96254608 312.23707492 -101.55399227 314.6321888 C-99.09279899 318.81741122 -96.64769131 323.01196329 -94.20267391 327.20665169 C-93.06054169 329.16569271 -91.91746279 331.12418211 -90.77347469 333.08213997 C-86.48992624 340.41515696 -82.23965507 347.76693058 -78.00076962 355.12584114 C-70.87990553 367.48606632 -63.69893583 379.81051441 -56.50076962 392.12584114 C-48.66418978 405.53342832 -40.85798354 418.95743393 -33.10648251 432.41441536 C-28.92749368 439.665061 -24.72345622 446.900567 -20.50076962 454.12584114 C-15.63973912 462.4433606 -10.80958644 470.77802792 -6.00076962 479.12584114 C-1.01289112 487.77872036 3.98059489 496.42825634 8.99923038 505.06334114 C9.82584171 506.49130013 9.82584171 506.49130013 10.66915226 507.94810677 C11.69985618 509.71841883 12.74345835 511.48132351 13.80344874 513.23425698 C14.91256009 515.12547264 15.96387444 517.05209439 16.94693416 519.0117929 C19.88534455 524.65403206 19.88534455 524.65403206 24.9507333 528.14290094 C27.95393445 528.54229135 30.78761391 528.58369012 33.81662846 528.50920296 C34.94952004 528.52495172 36.08241162 528.54070049 37.24963325 528.55692649 C41.0435654 528.59610381 44.83255667 528.55670788 48.62642765 528.5174427 C51.34684421 528.52300998 54.06707354 528.5450031 56.78740788 528.56611824 C63.40707087 528.6072896 70.025309 528.58935553 76.64493603 528.55052915 C82.02477968 528.52020094 87.40423576 528.51213067 92.78415585 528.51993752 C93.55025014 528.52104563 94.31634444 528.52215375 95.10565371 528.52329545 C96.66201769 528.52566786 98.21838156 528.52810279 99.77474534 528.53059956 C114.36295879 528.55161363 128.9503923 528.50679 143.53842383 528.43836376 C156.05386498 528.38103454 168.56842978 528.37553308 181.08394718 528.40904427 C195.62187548 528.44792218 210.15931572 528.45809503 224.69726318 528.42001128 C226.24754896 528.416004 227.79783479 528.41202017 229.34812069 528.40806007 C230.49224473 528.40509239 230.49224473 528.40509239 231.65948238 528.40206476 C237.03292094 528.38999238 242.40611402 528.39805989 247.77953625 528.41362953 C254.32804387 528.43190181 260.87553452 528.41763848 267.42384667 528.36199871 C270.76519279 528.33437459 274.10361622 528.3258866 277.44521618 528.34673119 C281.06809138 528.36679809 284.68632014 528.33162605 288.30881596 528.28215218 C289.36435675 528.30086443 290.41989754 528.31957669 291.50742441 528.33885598 C297.06493228 528.22917087 297.06493228 528.22917087 301.46234977 525.14206171 C303.00390571 522.86091496 304.28531943 520.5940766 305.49923038 518.12584114 C306.04450382 517.21761604 306.58977726 516.30939095 307.15157413 515.37364388 C307.5756757 514.60995491 307.99977726 513.84626595 308.43673038 513.05943489 C308.93156925 512.17473518 309.42640812 511.29003548 309.9362421 510.37852669 C310.45202824 509.44951546 310.96781437 508.52050423 311.49923038 507.56334114 C316.05179763 499.43638452 320.66662458 491.35151156 325.37423038 483.31334114 C330.27957374 474.93474673 335.15430456 466.53952644 339.99923038 458.12584114 C347.69020214 444.77556871 355.45406089 431.46850832 363.22872257 418.16685677 C370.48776181 405.74501524 377.7122721 393.30425693 384.89351749 380.83726692 C389.64337571 372.59614923 394.4301808 364.37717204 399.22969913 356.16490364 C404.1422184 347.75290436 409.01048862 339.31580876 413.87178898 330.87413216 C418.82885799 322.27208331 423.82437825 313.69294131 428.84493351 305.12779427 C429.90715862 303.31247064 430.95792146 301.49037555 431.99532413 299.66075325 C433.49923038 297.12584114 433.49923038 297.12584114 435.19063663 294.79600716 C436.74120968 292.54091961 437.82060827 290.77966579 438.49923038 288.12584114 C437.53862208 284.30609004 435.47129079 281.40183706 433.24923038 278.18834114 C432.00058597 276.24075533 430.7545987 274.291464 429.51094913 272.34068489 C428.51780704 270.81870491 428.51780704 270.81870491 427.50460148 269.26597786 C424.16576369 264.03781476 421.1279894 258.6417692 418.06173038 253.25084114 C416.79359675 251.04430815 415.52406376 248.83857881 414.25313663 246.63365364 C413.62810246 245.54858528 413.00306828 244.46351692 412.35909367 243.3455677 C409.42281092 238.26238355 406.46173287 233.19377519 403.49923038 228.12584114 C398.6381146 219.80837395 393.807819 211.473784 388.99923038 203.12584114 C381.8783663 190.76561596 374.6973966 178.44116787 367.49923038 166.12584114 C359.66265055 152.71825396 351.85644431 139.29424835 344.10494328 125.83726692 C339.35835325 117.60181961 334.57685432 109.38730373 329.7775507 101.18248177 C326.71133306 95.93549682 323.66315019 90.67894254 320.63985538 85.40709114 C319.99016788 84.27529427 319.34048038 83.14349739 318.67110538 81.97740364 C317.44448741 79.83830156 316.22027896 77.69781475 314.99923038 75.55552864 C313.86149965 73.57218723 312.69498102 71.60502717 311.49758816 69.65712452 C310.02923277 67.19254385 308.91831864 64.74089876 307.87338543 62.07134151 C305.83465673 57.37937949 303.60249999 53.30106535 299.49923038 50.12584114 C291.22533864 47.04152838 281.74061061 47.97129204 273.06319523 48.10313606 C270.34548216 48.09517861 267.62816296 48.06332922 264.9106226 48.03277779 C258.30819573 47.97334408 251.70880091 47.99959086 245.10645746 48.0564551 C239.73993593 48.10087658 234.37423674 48.11275809 229.00755024 48.10160446 C228.24243986 48.1000189 227.47732948 48.09843334 226.68903393 48.09679973 C225.13452592 48.09340088 223.58001811 48.08991058 222.0255105 48.08632986 C207.46642896 48.0562584 192.90900425 48.12176259 178.35031255 48.22178338 C165.86651558 48.30555764 153.38456214 48.31417472 140.90059757 48.266222 C126.38919043 48.21055276 111.87880685 48.19639997 97.36736357 48.25196534 C95.81933551 48.25781683 94.27130731 48.26363539 92.723279 48.26942062 C91.96169603 48.27231117 91.20011306 48.27520171 90.41545182 48.27817985 C85.05634971 48.29583933 79.6977588 48.28450203 74.33868885 48.26230621 C67.80597035 48.23627153 61.27538096 48.25740635 54.74307726 48.33811208 C51.41062513 48.37818362 48.08426338 48.39078393 44.75128078 48.36083794 C28.67574295 47.30321403 28.67574295 47.30321403 17.08629704 56.35186958 Z " fill="#FFFFFF" transform="translate(226.50076961517334,86.87415885925293)"/>
<path d="M0 0 C1.06208176 0.52413986 2.12416351 1.04827972 3.21842957 1.58830261 C6.692139 3.3043988 10.16042591 5.03117565 13.62890625 6.7578125 C16.03930327 7.95160911 18.45097256 9.14282239 20.86279297 10.33374023 C24.50974111 12.13510268 28.15640409 13.93702461 31.8012085 15.74272156 C42.11850458 20.85391994 52.46119137 25.91147726 62.81640625 30.9453125 C64.40035194 31.71622089 65.98425511 32.48721662 67.56811523 33.25830078 C74.94794132 36.85035821 82.3305504 40.43666734 89.71484375 44.01953125 C106.01404908 51.92792219 122.30535567 59.85239966 138.58349609 67.80407715 C140.73288945 68.85369595 142.88262737 69.90260946 145.03271484 70.95080566 C148.03710972 72.4157344 151.04020353 73.88329686 154.04296875 75.3515625 C154.95470856 75.79550354 155.86644836 76.23944458 156.80581665 76.69683838 C157.63511688 77.10303406 158.46441711 77.50922974 159.31884766 77.92773438 C160.04600983 78.28283081 160.773172 78.63792725 161.52236938 79.00378418 C163.19140625 79.8828125 163.19140625 79.8828125 164.19140625 80.8828125 C164.32193218 82.4086054 164.38426351 83.94028819 164.41932678 85.47125244 C164.45607262 86.95968155 164.45607262 86.95968155 164.49356079 88.47817993 C164.51510223 89.57624969 164.53664368 90.67431946 164.55883789 91.80566406 C164.5846846 92.95535675 164.61053131 94.10504944 164.63716125 95.2895813 C164.86330975 105.93511861 164.99878299 116.58219064 165.10253239 127.22955704 C165.17381955 134.3838325 165.27503132 141.53501955 165.45336914 148.6875 C165.609019 154.93053806 165.70714574 161.17142676 165.7374925 167.41637778 C165.75538097 170.71887508 165.80865306 174.01433823 165.91365242 177.31537628 C166.57129762 198.96925301 166.57129762 198.96925301 160.76681519 205.2791748 C157.50477958 208.18560042 154.01513369 210.49752623 150.22987175 212.66356659 C146.98141602 214.60653122 144.11723792 216.9932396 141.19140625 219.3828125 C140.04737524 220.28094636 138.90174284 221.17704739 137.75390625 222.0703125 C133.86197697 225.12825693 130.02598064 228.25344719 126.19140625 231.3828125 C120.6680094 235.89041223 115.09956189 240.33123892 109.48046875 244.71875 C104.39845999 248.69697405 99.38833844 252.7604923 94.3984375 256.85351562 C93.79386719 257.34787109 93.18929688 257.84222656 92.56640625 258.3515625 C91.9554863 258.87948898 91.34456635 259.40741547 90.71513367 259.95133972 C88.19140625 261.8828125 88.19140625 261.8828125 84.73640442 263.751297 C79.77185441 266.61404352 75.17750268 269.64462425 73.43966293 275.35142136 C72.50852888 281.66827925 72.76258871 288.00412672 73.04559898 294.36528587 C73.20626827 298.06057432 73.27369383 301.74771091 73.31806946 305.44612122 C73.44532837 314.63957031 73.7097838 323.82767878 74.00622559 333.01708984 C75.91345605 392.46126415 75.91345605 392.46126415 58.36056519 416.78851318 C54.79558304 421.87395051 51.91861106 427.31175421 48.94140625 432.7578125 C47.9405285 434.50769242 46.93609178 436.25554919 45.92578125 438 C43.15329989 442.86658963 40.642409 447.84792131 38.19140625 452.8828125 C37.53140625 452.8828125 36.87140625 452.8828125 36.19140625 452.8828125 C35.37875846 434.27002449 34.99968463 415.67778498 34.88808322 397.04858661 C34.86545469 393.40404042 34.83839581 389.75952618 34.81202698 386.11500549 C34.76814634 379.96234748 34.72738516 373.80967531 34.6887207 367.65698242 C34.6500226 361.50233663 34.6084764 355.34771997 34.5637207 349.19311523 C34.55832382 348.44453542 34.55292693 347.69595561 34.5473665 346.92469156 C34.52556592 343.90407231 34.50372562 340.8834538 34.48093343 337.86284184 C34.41836979 329.569682 34.36908714 321.27688799 34.35653687 312.98348999 C34.35059697 309.97841061 34.34342465 306.97333636 34.33544922 303.96826172 C34.33366503 303.22679358 34.33188085 302.48532545 34.3300426 301.72138858 C34.29954986 291.72973341 34.09056591 281.75759358 33.72949505 271.77254009 C33.53753308 266.42667355 33.40225194 261.07979184 33.28122407 255.73189145 C33.1955352 252.12518038 33.07863807 248.52565174 32.88378716 244.92306328 C31.74646499 223.5204508 31.74646499 223.5204508 35.82682991 217.44959259 C39.73943391 213.37854721 44.17790524 210.55740943 49.16651917 207.97260952 C51.9306212 206.484966 54.30916128 204.61346128 56.7421875 202.640625 C66.01304396 195.56455208 75.30464428 188.51815075 84.65356445 181.54541016 C86.2047616 180.38644839 87.73801806 179.20322799 89.25610352 178.0012207 C91.65818966 176.26763495 93.96447676 174.88095454 96.54663086 173.45776367 C105.11325332 168.40415056 105.11325332 168.40415056 110.07513428 160.11459351 C111.30784513 152.27981742 110.74317203 144.44906625 110.25390625 136.5703125 C110.16850635 134.17279525 110.09096173 131.77498461 110.02148438 129.37695312 C109.83537038 123.53910448 109.55213403 117.7123408 109.19140625 111.8828125 C101.42260121 117.41326564 93.66773648 122.95724418 86.00390625 128.6328125 C84.37894664 129.83338801 82.75394541 131.03390717 81.12890625 132.234375 C80.31421875 132.83668945 79.49953125 133.43900391 78.66015625 134.05957031 C76.21451623 135.86574512 73.76601988 137.66796892 71.31640625 139.46875 C63.72615125 145.04981985 56.15316773 150.65050282 48.62890625 156.3203125 C44.52758977 159.41010691 40.41765054 162.46452401 36.19140625 165.3828125 C35.47960205 165.89424805 34.76779785 166.40568359 34.03442383 166.93261719 C31.87103636 168.41661368 29.7297027 169.74428415 27.47119141 171.06518555 C14.33782639 179.21314542 11.27751306 188.70163742 7.56640625 203.1953125 C6.96992839 205.3446404 6.36752644 207.49233215 5.75952148 209.63842773 C4.50255155 214.0991011 3.275282 218.56642041 2.06884766 223.04101562 C-0.68662949 233.18645358 -3.75838889 243.23754755 -6.79876709 253.30038452 C-8.30588895 258.30371642 -9.79014455 263.31378043 -11.2734375 268.32421875 C-11.53200027 269.19677307 -11.79056305 270.06932739 -12.05696106 270.96832275 C-12.641111 272.93973865 -13.22489931 274.91126169 -13.80859375 276.8828125 C-14.46859375 276.8828125 -15.12859375 276.8828125 -15.80859375 276.8828125 C-16.15414307 275.75117676 -16.49969238 274.61954102 -16.85571289 273.45361328 C-17.08821747 272.69219025 -17.32072205 271.93076721 -17.56027222 271.14627075 C-18.0943219 269.39572025 -18.62767968 267.64495855 -19.16043091 265.89401245 C-20.69085884 260.86558742 -22.23116158 255.84052584 -23.78833008 250.8203125 C-26.8855635 240.78974719 -29.89285843 230.76156576 -32.52449036 220.59738159 C-33.69213449 216.10186218 -34.91080619 211.62079967 -36.13204956 207.1395874 C-36.7009304 204.99534888 -37.24505067 202.84436318 -37.76223755 200.68707275 C-41.32225614 185.89112038 -45.91801837 177.9527433 -58.99926758 169.8203125 C-59.78749908 169.34787109 -60.57573059 168.87542969 -61.3878479 168.38867188 C-65.54283465 165.80400329 -69.40440427 162.82669044 -73.30859375 159.8828125 C-74.89065616 158.71442298 -76.47384275 157.54755274 -78.05859375 156.3828125 C-87.55859375 149.3828125 -87.55859375 149.3828125 -89.93383789 147.63256836 C-91.5162756 146.46660444 -93.09879506 145.30075146 -94.68139648 144.13500977 C-98.65411262 141.20849807 -102.62536369 138.28003716 -106.59375 135.34765625 C-107.39425781 134.75662109 -108.19476563 134.16558594 -109.01953125 133.55664062 C-110.4927484 132.46885819 -111.96548201 131.38042024 -113.4375 130.29101562 C-121.84443916 124.08626182 -130.33298871 117.99320447 -138.80859375 111.8828125 C-139.26918275 118.88703788 -139.58176639 125.88731844 -139.79736328 132.90332031 C-139.8872923 135.28273261 -140.00970745 137.6611664 -140.16650391 140.03710938 C-141.39494942 153.23657986 -141.39494942 153.23657986 -137.11367798 165.30014038 C-132.96688334 169.51271428 -128.23950659 172.58774843 -123.12780762 175.50657654 C-119.44400892 177.69256564 -116.12335681 180.32071509 -112.74609375 182.9453125 C-111.42770532 183.93356164 -110.10761244 184.91954467 -108.78515625 185.90234375 C-104.70833986 188.95042139 -100.66180431 192.03709538 -96.62109375 195.1328125 C-95.93635986 195.6572998 -95.25162598 196.18178711 -94.54614258 196.72216797 C-93.09762081 197.83182223 -91.64913578 198.94152445 -90.20068359 200.05126953 C-85.61517788 203.56223747 -81.0250064 207.06707448 -76.43359375 210.5703125 C-75.52327393 211.26608398 -74.6129541 211.96185547 -73.67504883 212.67871094 C-72.82450928 213.32743164 -71.97396973 213.97615234 -71.09765625 214.64453125 C-70.34178223 215.22162842 -69.5859082 215.79872559 -68.80712891 216.39331055 C-67.17784151 217.60761331 -65.49933727 218.75565015 -63.80859375 219.8828125 C-63.52997673 222.56048414 -63.45145688 225.00366309 -63.50024414 227.68188477 C-63.50326727 228.50775778 -63.5062904 229.33363079 -63.50940514 230.18453026 C-63.52330495 233.00220832 -63.55879301 235.81922856 -63.59375 238.63671875 C-63.60807157 240.6792358 -63.62097233 242.72176323 -63.63258362 244.76429749 C-63.66094665 249.30823866 -63.6985282 253.85199174 -63.74200439 258.39581299 C-63.80908663 265.57940458 -63.85114001 272.76300841 -63.88738894 279.94680285 C-63.96975622 296.26205259 -64.08054947 312.57703677 -64.19743121 328.89207041 C-64.23577813 334.2778872 -64.27149976 339.66371726 -64.3059082 345.04956055 C-64.53616 381.00143135 -64.87855919 416.94059856 -65.80859375 452.8828125 C-66.46859375 452.8828125 -67.12859375 452.8828125 -67.80859375 452.8828125 C-68.38806763 451.7990332 -68.38806763 451.7990332 -68.97924805 450.69335938 C-75.90355806 437.74644338 -82.83390645 424.80267459 -89.80859375 411.8828125 C-90.31092529 410.94888672 -90.81325684 410.01496094 -91.33081055 409.05273438 C-91.818479 408.15103516 -92.30614746 407.24933594 -92.80859375 406.3203125 C-93.25845642 405.46389664 -93.70831909 404.60748077 -94.17181396 403.72511292 C-95.70421834 400.89168841 -95.70421834 400.89168841 -97.62086487 398.64402771 C-104.89767474 388.94766343 -103.55939195 378.11395262 -103.24485588 366.52867317 C-103.14682476 362.73048352 -103.10139529 358.93490293 -103.07069397 355.13560486 C-102.97691031 344.34359465 -102.81196913 333.55431506 -102.55883789 322.76489258 C-102.40412758 316.14389263 -102.33518888 309.52501265 -102.31094551 302.90206718 C-102.28614741 300.3919784 -102.23155457 297.88198889 -102.14567375 295.37324715 C-101.17070927 280.96122009 -101.17070927 280.96122009 -107.22879028 268.56466675 C-110.49982747 265.6616681 -113.997725 263.32261917 -117.76912117 261.12238884 C-121.00489166 259.15571148 -123.87865334 256.77078827 -126.80859375 254.3828125 C-127.95271571 253.48479449 -129.09835833 252.5887076 -130.24609375 251.6953125 C-134.82778568 248.09541169 -139.33352638 244.40269506 -143.84765625 240.71875 C-148.13310993 237.22751167 -152.45188828 233.78462362 -156.80859375 230.3828125 C-162.46632574 225.96513136 -168.0516343 221.46450146 -173.6015625 216.91210938 C-174.20613281 216.41775391 -174.81070313 215.92339844 -175.43359375 215.4140625 C-176.04500214 214.88327591 -176.65641052 214.35248932 -177.28634644 213.80561829 C-179.85387255 211.73476392 -179.85387255 211.73476392 -183.25027466 210.09233093 C-188.41048951 207.20524707 -192.84877307 204.11848402 -194.59456635 198.23320389 C-195.82524263 190.05860445 -195.41218233 181.79396544 -195.17578125 173.55859375 C-195.14964166 170.88372203 -195.12903865 168.20937656 -195.11575317 165.5344696 C-195.07243423 159.23622352 -194.95784137 152.94142638 -194.81686032 146.64469165 C-194.6597439 139.46973055 -194.58324747 132.29459442 -194.51312423 125.11833823 C-194.36723752 110.37140809 -194.12139154 95.62717069 -193.80859375 80.8828125 C-173.59675048 70.17848346 -173.59675048 70.17848346 -164.04296875 65.54296875 C-163.1330014 65.09842346 -162.22303406 64.65387817 -161.28549194 64.19586182 C-158.37787088 62.77623481 -155.4682765 61.36070827 -152.55859375 59.9453125 C-150.48669261 58.93474271 -148.4149175 57.92391448 -146.34326172 56.9128418 C-141.14228315 54.37535347 -135.93966687 51.84124487 -130.7364502 49.30834961 C-126.33002144 47.16291392 -121.92480396 45.01499562 -117.51953125 42.8671875 C-111.16110275 39.76758503 -104.80156974 36.67025933 -98.44140625 33.57421875 C-90.86379195 29.8853558 -83.28898969 26.1907579 -75.71604919 22.49230957 C-71.36475402 20.36745634 -67.01244581 18.24474356 -62.6574707 16.12744141 C-55.35452378 12.57548399 -48.05571922 9.01824919 -40.79544067 5.37966919 C-37.91387227 3.93698822 -35.02678338 2.5055835 -32.13891602 1.07556152 C-30.81018033 0.41360518 -29.48423548 -0.25398776 -28.16137695 -0.9276123 C-26.35952632 -1.84483132 -24.54717301 -2.74133067 -22.734375 -3.63671875 C-21.22484253 -4.39625854 -21.22484253 -4.39625854 -19.68481445 -5.17114258 C-12.55435193 -7.51649037 -6.27402542 -3.14309832 0 0 Z M-13.80859375 -3.1171875 C-13.80859375 85.9828125 -13.80859375 175.0828125 -13.80859375 266.8828125 C-11.54404235 263.4859854 -10.53541196 260.1299253 -9.39428711 256.26196289 C-9.04512993 255.10051506 -9.04512993 255.10051506 -8.68891907 253.91560364 C-7.92057922 251.35531527 -7.15945545 248.7929421 -6.3984375 246.23046875 C-5.86601991 244.45059523 -5.33318228 242.67084731 -4.79994202 240.89122009 C-3.39679017 236.20382677 -1.99986656 231.51459862 -0.60406494 226.82501221 C0.53601562 222.99843891 1.68051879 219.17319548 2.82526493 215.34801579 C4.18969387 210.788447 5.55216335 206.22829372 6.9140625 201.66796875 C7.30414332 200.36203105 7.30414332 200.36203105 7.70210457 199.02971077 C8.43794707 196.56446964 9.17246645 194.09883866 9.90649414 191.63305664 C10.1241745 190.9040918 10.34185486 190.17512695 10.56613159 189.42407227 C11.34901603 186.79017941 12.12544751 184.17245483 12.73574829 181.49246216 C13.4132291 179.09920483 14.79053791 178.36174227 16.8046875 176.96484375 C17.55314941 176.43810059 18.30161133 175.91135742 19.07275391 175.36865234 C19.87503418 174.8164502 20.67731445 174.26424805 21.50390625 173.6953125 C22.3139209 173.11217285 23.12393555 172.5290332 23.95849609 171.92822266 C27.57195075 169.33470049 31.15318654 166.84022313 35.0546875 164.69921875 C40.78619753 161.39985558 40.78619753 161.39985558 43.74511719 155.72949219 C44.59037529 149.12805277 45.18170005 141.66068845 41.1875 136.0859375 C40.52878906 135.35890625 39.87007812 134.631875 39.19140625 133.8828125 C38.5390625 131.6015625 38.5390625 131.6015625 38.25390625 129.3828125 C37.35828551 124.76049867 35.79758118 123.02862467 32.19140625 119.8828125 C30.58865276 118.19268574 29.0068578 116.48254688 27.44140625 114.7578125 C26.6628125 113.90960938 25.88421875 113.06140625 25.08203125 112.1875 C21.50777238 107.8304489 22.08779617 103.37040025 22.12109375 98.015625 C22.11251015 96.22525069 22.10203446 94.43488463 22.08984375 92.64453125 C22.07314014 89.82407761 22.06642732 87.0054702 22.09179688 84.18505859 C22.11277133 81.46076248 22.08952454 78.73976371 22.05859375 76.015625 C22.07598602 75.17589142 22.0933783 74.33615784 22.11129761 73.47097778 C22.05961653 68.92662644 22.05961653 68.92662644 19.62359619 65.27603149 C17.76162299 63.91925711 17.76162299 63.91925711 15.82644653 62.85003662 C12.98549896 61.16944621 12.4724583 58.93650625 11.5625 55.9296875 C10.69418552 51.14024765 11.70737763 47.79900952 13.94140625 43.5703125 C16.4239033 40.60510769 17.42700088 39.63569357 21.19140625 38.8828125 C25.90522907 38.74314368 29.83240634 39.18308095 33.62890625 42.1328125 C37.12262309 45.88216716 38.00565027 48.21100865 38.56640625 53.2578125 C38.08071054 57.95287105 36.93009161 60.03384929 34.19140625 63.8828125 C32.55731239 64.93519791 30.89404638 65.94537217 29.19140625 66.8828125 C29.0862354 72.23692993 29.04828108 77.58605034 29.06933594 82.94116211 C29.06740365 84.75767586 29.04793379 86.57426711 29.00976562 88.39038086 C28.51497862 100.57655974 28.51497862 100.57655974 33.7986145 111.09757996 C35.82333288 113.1531577 37.98599071 115.02482544 40.19140625 116.8828125 C40.52140625 117.5428125 40.85140625 118.2028125 41.19140625 118.8828125 C41.85140625 118.8828125 42.51140625 118.8828125 43.19140625 118.8828125 C43.20075195 118.20702148 43.21009766 117.53123047 43.21972656 116.83496094 C43.27347926 113.7668414 43.35711617 110.70023863 43.44140625 107.6328125 C43.45558594 106.56933594 43.46976563 105.50585938 43.484375 104.41015625 C43.51660156 103.38535156 43.54882812 102.36054688 43.58203125 101.3046875 C43.60297852 100.36206055 43.62392578 99.41943359 43.64550781 98.44824219 C44.51619307 94.35648876 47.02180351 92.68653546 50.35791016 90.39404297 C51.12022949 89.93400879 51.88254883 89.47397461 52.66796875 89 C53.9209375 88.20722656 53.9209375 88.20722656 55.19921875 87.3984375 C56.93919044 86.30770898 58.69196767 85.2371384 60.45703125 84.1875 C65.30631892 81.12846338 65.30631892 81.12846338 68.15576172 76.32910156 C68.69464323 73.67994974 68.69464323 73.67994974 68.90039062 71.12158203 C69.32972828 67.81870759 70.8111153 66.12308633 73.19140625 63.8828125 C77.67529976 61.18097923 82.09382052 61.22350331 87.19140625 61.8828125 C91.3211559 63.94768732 93.48667686 65.628668 95.19140625 69.8828125 C95.89171977 74.81757989 95.70591121 78.79443663 93.56640625 83.3203125 C89.96978744 87.2008749 87.01295338 88.68409827 81.75390625 89.2578125 C78.19140625 88.8828125 78.19140625 88.8828125 75.08984375 87.04296875 C72.58045112 85.93789069 71.52161103 85.79122837 68.84643555 86.53320312 C62.2541767 89.69676486 53.91854294 94.23706772 51.2578125 101.39404297 C50.10275609 108.30521567 50.13389408 115.93107388 54.22265625 121.796875 C54.87234375 122.48523438 55.52203125 123.17359375 56.19140625 123.8828125 C57.500916 127.89864239 57.29031962 129.60020287 55.87890625 133.6328125 C54.19140625 136.8828125 54.19140625 136.8828125 52.19140625 138.8828125 C51.72653907 142.00477586 51.72653907 142.00477586 51.56640625 145.5078125 C51.49164063 146.69632813 51.416875 147.88484375 51.33984375 149.109375 C51.26636719 150.48222656 51.26636719 150.48222656 51.19140625 151.8828125 C51.67246826 151.51929688 52.15353027 151.15578125 52.64916992 150.78125 C57.55661438 147.08511802 62.51382503 143.46628236 67.50390625 139.8828125 C74.01469301 135.19578125 80.49046322 130.46433726 86.94140625 125.6953125 C92.68674018 121.45098528 98.4454898 117.22802038 104.25390625 113.0703125 C104.83172852 112.65563721 105.40955078 112.24096191 106.00488281 111.8137207 C108.02457604 110.37430325 109.96930443 108.99386341 112.19140625 107.8828125 C112.35321284 115.69378882 112.42045322 123.50156958 112.42333984 131.31420898 C112.42860103 133.97110991 112.46852565 136.62100044 112.52392578 139.27807617 C112.98688235 162.57876784 112.98688235 162.57876784 108.71459961 167.46313477 C105.6333796 169.77108217 102.70536602 171.33373319 99.19140625 172.8828125 C97.77349382 173.89024407 96.38385606 174.93982583 95.0390625 176.04296875 C94.41805664 176.51863281 93.79705078 176.99429688 93.15722656 177.484375 C92.21508301 178.20753906 92.21508301 178.20753906 91.25390625 178.9453125 C86.3857228 182.68067667 81.50831358 186.40267276 76.609375 190.09765625 C75.19676392 191.16584595 75.19676392 191.16584595 73.75561523 192.25561523 C71.9176065 193.64492469 70.07736741 195.03128975 68.23461914 196.41430664 C63.92044112 199.68050286 59.88080707 202.91899344 56.19140625 206.8828125 C56.60132813 207.70265625 57.01125 208.5225 57.43359375 209.3671875 C62.19140625 218.8828125 62.19140625 218.8828125 63.078125 221.12890625 C65.20265174 224.47596768 68.46290059 225.04062731 72.15625 225.8984375 C77.71435481 225.86982435 80.60011813 222.08069769 84.44628906 218.43359375 C87.93766511 215.33101672 91.78355559 212.67743321 95.56640625 209.9453125 C102.32508385 205.00983491 109.01261957 200.00064571 115.625 194.87109375 C118.19140625 192.8828125 118.19140625 192.8828125 120.5390625 191.4453125 C122.45635779 189.97355994 122.45635779 189.97355994 122.44140625 187.39453125 C122.35890625 186.46253906 122.27640625 185.53054688 122.19140625 184.5703125 C122.00816621 179.4328048 122.58300232 176.78378972 126.19140625 172.8828125 C127.05010315 172.44165604 127.90880005 172.00049957 128.79351807 171.54597473 C131.39268843 170.1214572 131.39268843 170.1214572 131.83978271 167.55033875 C131.84979309 166.6335585 131.85980347 165.71677826 131.87011719 164.7722168 C131.89233337 163.73070969 131.91454956 162.68920258 131.93743896 161.61613464 C131.93359192 160.49113052 131.92974487 159.3661264 131.92578125 158.20703125 C131.93530823 157.04911575 131.94483521 155.89120026 131.95465088 154.69819641 C131.96682694 152.24617479 131.96596363 149.79405926 131.953125 147.34204102 C131.94148043 143.59418856 131.99358851 139.85087254 132.05078125 136.10351562 C132.05466759 133.72135734 132.0547907 131.33918933 132.05078125 128.95703125 C132.07122498 127.83809982 132.0916687 126.7191684 132.11273193 125.56632996 C132.13903984 119.83369575 132.13903984 119.83369575 129.62585449 114.8878479 C127.78151529 113.26578935 127.78151529 113.26578935 125.83282471 112.00886536 C123.39537522 110.33671592 122.81536473 108.72529002 122.19140625 105.8828125 C121.63648226 100.88849656 122.26205047 97.55978907 124.9296875 93.39453125 C127.88157536 89.8577492 131.20705727 89.00809328 135.62890625 88.4453125 C139.94899942 88.97585026 142.84645892 90.09967803 146.19140625 92.8828125 C149.35151221 97.36812418 149.95844413 101.55616055 149.19140625 106.8828125 C148.06640625 110.1328125 148.06640625 110.1328125 146.19140625 112.8828125 C145.18513184 113.36121582 144.17885742 113.83961914 143.14208984 114.33251953 C139.78128089 117.23728623 139.70750936 117.80020718 139.29150391 122.01513672 C139.19642625 124.15471096 139.13667973 126.29604172 139.10546875 128.4375 C139.072789 129.5718045 139.04010925 130.70610901 139.00643921 131.87478638 C138.94667807 134.27345711 138.90227349 136.67255238 138.87207031 139.07177734 C138.81667572 142.73996809 138.68675905 146.40042498 138.55078125 150.06640625 C138.50196923 152.39834687 138.45755289 154.73038449 138.41796875 157.0625 C138.35145615 158.70338089 138.35145615 158.70338089 138.28359985 160.37741089 C138.16307389 166.08721178 138.16307389 166.08721178 140.95526123 170.80718994 C143.06301826 172.39501593 143.06301826 172.39501593 145.27328491 173.59524536 C147.54310105 175.1188928 148.21709982 176.3584112 149.19140625 178.8828125 C149.76689525 183.0607132 149.63645053 186.77020179 148.06640625 190.6953125 C145.18017138 194.06258652 142.49719656 196.59458871 137.94140625 197.1640625 C134.90866039 197.20396705 132.16740412 197.2256935 129.28588867 196.21337891 C127.16842495 195.66529484 127.16842495 195.66529484 125.38647461 196.83227539 C124.77425049 197.3349292 124.16202637 197.83758301 123.53125 198.35546875 C122.47852905 199.20008667 122.47852905 199.20008667 121.40454102 200.06176758 C120.65358154 200.6833374 119.90262207 201.30490723 119.12890625 201.9453125 C117.51360541 203.24453664 115.89635353 204.54133814 114.27734375 205.8359375 C113.0238916 206.84237305 113.0238916 206.84237305 111.74511719 207.86914062 C107.66200481 211.08878794 103.4578765 214.1363876 99.25390625 217.1953125 C97.67501365 218.36224338 96.0968646 219.5301811 94.51953125 220.69921875 C91.89034035 222.64580912 89.24117981 224.54937273 86.55078125 226.41015625 C81.26661361 229.96481642 81.26661361 229.96481642 78.67578125 235.44140625 C78.71782789 238.05701743 78.71782789 238.05701743 79.03515625 240.58984375 C79.19140625 242.8828125 79.19140625 242.8828125 77.75390625 246.2578125 C75.15675733 248.91830652 74.23536098 249.2945422 70.87890625 250.3828125 C65.26074268 252.74998889 63.01641828 256.88609774 60.6472168 262.28173828 C57.18774131 271.7992869 58.20545012 282.60485523 58.25390625 292.5703125 C58.24120755 295.13705992 58.22558156 297.70379426 58.20727539 300.27050781 C58.16784389 306.71110787 58.16852642 313.15117514 58.18134022 319.59185982 C58.19247843 325.66431428 58.18698053 331.73663169 58.17480469 337.80908203 C58.17295575 338.74694833 58.17110682 339.68481462 58.16920185 340.65110111 C58.16540667 342.56849545 58.16160112 344.48588977 58.15778542 346.40328407 C58.11793838 367.56323383 58.13957715 388.72290664 58.19140625 409.8828125 C70.81932163 394.71459682 72.48908881 381.26063832 72.25390625 361.8984375 C72.25702726 359.42363663 72.26426203 356.94883788 72.27539062 354.47406006 C72.2942126 348.0115301 72.26066424 341.55036471 72.21466064 335.0880127 C72.16834197 327.20994741 72.18416511 319.33180427 72.19068909 311.45363998 C72.19460715 305.33205404 72.18943601 299.21092549 72.15649414 293.0894165 C72.15194717 291.96816376 72.14740021 290.84691101 72.14271545 289.69168091 C72.13378228 287.60234434 72.12097139 285.51301919 72.10350037 283.42373657 C72.10028275 282.49904572 72.09706512 281.57435486 72.09375 280.62164307 C72.08851318 279.82240543 72.08327637 279.0231678 72.07788086 278.19971085 C72.29502002 273.76819674 72.4677621 271.561841 75.7890625 268.4453125 C76.93451173 267.57844951 78.09026749 266.72510118 79.25390625 265.8828125 C80.53766874 264.91566708 81.82017239 263.94684894 83.1015625 262.9765625 C84.10920654 262.22052734 84.10920654 262.22052734 85.13720703 261.44921875 C88.55554494 258.84260405 91.86886633 256.10974559 95.19140625 253.3828125 C100.71341084 248.87353971 106.28328766 244.43435715 111.90234375 240.046875 C116.37577467 236.54504899 120.79003003 232.97464329 125.19140625 229.3828125 C129.57765325 225.8041018 133.9690906 222.23548037 138.43235111 218.75295639 C139.57412271 217.85495881 140.70922337 216.94834115 141.83415127 216.02933121 C144.81119406 213.62065393 147.73895945 211.51978446 151.09864807 209.67547607 C156.37440215 206.5571339 161.12785227 203.28841996 163.02363205 197.21794128 C164.33077371 189.16251106 163.91100827 181.02349899 163.65625 172.8984375 C163.62824015 170.270061 163.60690378 167.64160568 163.5919342 165.01312256 C163.54555441 158.82795772 163.42282909 152.64683341 163.27169186 146.4634378 C163.10324217 139.41670962 163.02136595 132.36977438 162.94626033 125.32152987 C162.79003052 110.8398855 162.52669524 96.36140552 162.19140625 81.8828125 C159.15894181 80.2805803 156.12545835 78.68028669 153.09179688 77.08032227 C152.23926331 76.62984779 151.38672974 76.17937332 150.50836182 75.71524811 C143.96797587 72.26760967 137.37116948 68.99036963 130.69140625 65.8203125 C128.21145337 64.6331156 125.73215698 63.44464427 123.25390625 62.25390625 C122.57428833 61.92752167 121.89467041 61.60113708 121.19445801 61.26486206 C110.32845381 56.03601301 99.51537446 50.69792536 88.69140625 45.3828125 C74.19294401 38.26573594 59.69379978 31.15290324 45.13134766 24.16748047 C37.58235095 20.5398954 30.06300489 16.85539199 22.55078125 13.15234375 C19.42799193 11.61568181 16.30503412 10.07936263 13.18206787 8.5430603 C11.11545115 7.52473124 9.04988624 6.50426467 6.9854126 5.4815979 C4.09568188 4.05021705 1.20251015 2.62601978 -1.69140625 1.203125 C-2.56806946 0.76639969 -3.44473267 0.32967438 -4.34796143 -0.12028503 C-5.15626404 -0.51613297 -5.96456665 -0.9119809 -6.79736328 -1.31982422 C-7.50265167 -1.66842499 -8.20794006 -2.01702576 -8.93460083 -2.37619019 C-10.93770189 -3.30104192 -10.93770189 -3.30104192 -13.80859375 -3.1171875 Z M20.37890625 47.0078125 C18.61295874 49.79615067 18.72959049 51.65010218 19.19140625 54.8828125 C20.73426256 57.42612488 20.73426256 57.42612488 23.19140625 58.8828125 C26.5829492 58.72131045 27.77437382 58.29984493 30.19140625 55.8828125 C30.67040463 51.19964716 30.67040463 51.19964716 29.00390625 46.9453125 C25.93149155 45.14424182 23.41108296 45.12577178 20.37890625 47.0078125 Z M76.81640625 70.0078125 C74.92406917 72.78602117 74.92406917 72.78602117 75.25390625 76.0078125 C76.35208219 79.65739974 76.35208219 79.65739974 79.19140625 81.8828125 C84.23705627 81.69143766 84.23705627 81.69143766 88.19140625 78.8828125 C88.47063374 75.95092389 88.66284506 73.72890603 88.19140625 70.8828125 C86.12671698 68.43577337 84.79996598 68.00452445 81.69140625 67.3828125 C78.98723958 67.70364583 78.98723958 67.70364583 76.81640625 70.0078125 Z M130.19140625 98.4453125 C128.76005114 101.93424059 129.25744025 104.28037222 130.19140625 107.8828125 C133.08602526 110.24420552 133.08602526 110.24420552 136.75390625 109.6953125 C140.44966377 109.23441488 140.44966377 109.23441488 142.19140625 105.8828125 C142.51302701 102.7952532 142.6786514 100.74265689 141.12890625 98.0078125 C137.44216274 95.86712272 133.5722342 95.80404066 130.19140625 98.4453125 Z M43.19140625 125.8828125 C42.77473958 128.8828125 42.77473958 128.8828125 43.19140625 131.8828125 C45.88295826 134.1471965 45.88295826 134.1471965 48.25390625 133.6328125 C50.386176 132.95748532 50.386176 132.95748532 52.19140625 130.8828125 C52.00383563 127.05716585 52.00383563 127.05716585 50.19140625 123.8828125 C46.23023825 123.49190917 46.23023825 123.49190917 43.19140625 125.8828125 Z M130.81640625 177.4453125 C128.56800106 180.81792029 128.6235668 182.90793633 129.19140625 186.8828125 C130.67133781 189.44619939 130.67133781 189.44619939 133.19140625 190.8828125 C136.827732 191.48886679 138.47455394 191.35442586 141.56640625 189.3203125 C143.81481144 185.94770471 143.7592457 183.85768867 143.19140625 179.8828125 C141.71147469 177.31942561 141.71147469 177.31942561 139.19140625 175.8828125 C135.5550805 175.27675821 133.90825856 175.41119914 130.81640625 177.4453125 Z M38.87466431 217.93167114 C33.94692486 223.35137188 34.70430699 229.50261271 34.984375 236.37890625 C35.00410657 237.9843284 35.01830596 239.58982618 35.02754211 241.19534302 C35.05943424 244.70760279 35.12966666 248.21633097 35.22900391 251.72732544 C35.38952609 257.41345577 35.46804882 263.09896859 35.53515625 268.78686523 C35.6294698 276.2732058 35.74681345 283.75867537 35.88607216 291.24431324 C36.22476582 309.65698524 36.35180613 328.06923826 36.4609375 346.484375 C36.47048213 348.0667351 36.48005127 349.64909505 36.489645 351.23145485 C36.52797777 357.56294808 36.56611683 363.89444234 36.60343075 370.22594166 C36.69942321 386.38778044 36.82499117 402.54936112 36.95559478 418.71095228 C36.97261675 420.81932612 36.98954177 422.92770071 37.00643349 425.03607559 C37.06745832 432.65165975 37.1290252 440.26723933 37.19140625 447.8828125 C40.47426213 444.67403923 42.54254368 441.22606944 44.81640625 437.2578125 C45.22375 436.58363281 45.63109375 435.90945313 46.05078125 435.21484375 C46.44007813 434.53550781 46.829375 433.85617187 47.23046875 433.15625 C47.58318848 432.55216309 47.9359082 431.94807617 48.29931641 431.32568359 C51.28810905 423.14126675 50.31830138 413.52150957 50.28564453 404.9465332 C50.28376218 403.45069942 50.28241905 401.95486488 50.28157043 400.45903015 C50.27929774 397.25234086 50.27459126 394.04566751 50.2683754 390.83898354 C50.25991874 385.75584454 50.26543889 380.67278021 50.27438354 375.58964539 C50.27585455 374.72880996 50.27732556 373.86797453 50.27884114 372.98105317 C50.28191151 371.22150985 50.28503154 369.46196661 50.28820014 367.70242345 C50.30931809 355.88168951 50.32312148 344.06120261 50.29101562 332.24047852 C50.26941079 324.24852998 50.27274212 316.25701405 50.30442417 308.26509351 C50.32019116 304.04581272 50.32369974 299.82735952 50.29666519 295.60811806 C50.27142188 291.63409842 50.27942522 287.66145872 50.31154442 283.68750191 C50.317574 282.24046015 50.31199335 280.79330866 50.29305077 279.34637833 C50.17320521 269.50148107 51.92460847 263.08676686 56.88607597 254.7880888 C58.50897863 252.02738102 58.50897863 252.02738102 57.4965992 249.59602833 C56.20300227 247.84130367 56.20300227 247.84130367 54.62890625 246.1953125 C52.41700079 242.63702981 52.04689493 239.03751295 52.19140625 234.8828125 C53.56640625 231.5703125 53.56640625 231.5703125 55.19140625 228.8828125 C56.55251456 225.85587014 56.17654846 224.84325542 54.9765625 221.6484375 C54.40808594 220.48828125 53.83960938 219.328125 53.25390625 218.1328125 C52.68800781 216.96234375 52.12210938 215.791875 51.5390625 214.5859375 C51.09433594 213.69390625 50.64960938 212.801875 50.19140625 211.8828125 C45.87871166 211.8828125 42.10822351 215.2760612 38.87466431 217.93167114 Z M59.75390625 232.9453125 C57.9171991 235.86184159 57.9171991 235.86184159 58.12890625 239.5078125 C58.90131051 242.96960438 58.90131051 242.96960438 61.44140625 244.8828125 C64.63001165 246.04230537 66.02701178 246.04864204 69.19140625 244.8828125 C71.45216438 243.26798526 72.10335702 242.12180328 73.06640625 239.5078125 C73.22909055 236.09144215 72.21630197 234.58267346 70.19140625 231.8828125 C66.1834224 229.87882058 63.16553946 230.05854594 59.75390625 232.9453125 Z " fill="#FFFFFF" transform="translate(402.80859375,151.1171875)"/>
<path d="M0 0 C4.29040821 2.05792599 6.61081504 4.80897307 8.47265625 9.1640625 C9.55228807 13.13205998 9.39831265 16.48634529 8.07421875 20.375 C5.88133791 24.002218 3.30774952 26.57487193 -0.23828125 28.875 C-4.9008372 29.74245227 -9.53139013 29.6888714 -13.76953125 27.36328125 C-17.05917163 24.80735968 -19.00733123 22.41618007 -19.92578125 18.375 C-20.48354118 13.67761561 -20.40954829 10.3611405 -18.30078125 6.0625 C-13.06983466 0.14327096 -7.74036352 -2.51208552 0 0 Z M-14.92578125 7.375 C-16.95731817 11.69084572 -17.15055469 14.56846001 -15.86328125 19.1875 C-13.76095547 22.64616499 -12.67524942 23.92634184 -8.92578125 25.375 C-5.57028979 25.86307148 -3.1778727 26.10608696 -0.1796875 24.35546875 C2.53298904 22.20224109 3.97027895 20.68681941 5.07421875 17.375 C5.44488648 12.37098565 5.1730371 9.39198676 2.07421875 5.375 C-3.5631785 1.61673517 -10.47737129 1.98298793 -14.92578125 7.375 Z " fill="#FFFFFF" transform="translate(459.92578125,317.625)"/>
<path d="M0 0 C1.43088528 2.86177057 0.59991697 4.93375773 0 8 C-0.33 8 -0.66 8 -1 8 C-1.04241723 5.66705225 -1.04092937 3.33297433 -1 1 C-0.67 0.67 -0.34 0.34 0 0 Z " fill="#FFFFFF" transform="translate(449,327)"/>
<path d="M0 0 C2.31 0.33 4.62 0.66 7 1 C7 1.33 7 1.66 7 2 C5.02 2 3.04 2 1 2 C0.67 1.34 0.34 0.68 0 0 Z " fill="#FFFFFF" transform="translate(450,337)"/>
<path d="M0 0 C0.33 0 0.66 0 1 0 C1 2.31 1 4.62 1 7 C0.67 7 0.34 7 0 7 C0 4.69 0 2.38 0 0 Z " fill="#FFFFFF" transform="translate(460,328)"/>
<path d="M0 0 C0 0.99 0 1.98 0 3 C-0.66 2.67 -1.32 2.34 -2 2 C-1.34 1.34 -0.68 0.68 0 0 Z " fill="#FFFFFF" transform="translate(459,335)"/>
<path d="M0 0 C3 1 3 1 3 1 Z " fill="#FFFFFF" transform="translate(453,324)"/>
<path d="" fill="#FFFFFF" transform="translate(0,0)"/>
<path d="M0 0 C2 1 2 1 2 1 Z " fill="#FFFFFF" transform="translate(456,325)"/>
<path d="M0 0 C2 1 2 1 2 1 Z " fill="#FFFFFF" transform="translate(451,325)"/>
<path d="" fill="#FFFFFF" transform="translate(0,0)"/>
<path d="" fill="#FFFFFF" transform="translate(0,0)"/>
<path d="" fill="#FFFFFF" transform="translate(0,0)"/>
</svg>
